HIERARCHY
ROOT base
{
	OFFSET 0.0 0.0 0.0
	CHANNELS 6 Xposition Yposition Zposition Zrotation Yrotation Xrotation
	JOINT root
	{
		OFFSET 0 0 0
		CHANNELS 6 Xposition Yposition Zposition Zrotation Yrotation Xrotation
		JOINT chest
		{
			OFFSET 0 4.72302 0
			CHANNELS 3 Zrotation Yrotation Xrotation
			JOINT neck
			{
				OFFSET 0 4.47788 0
				CHANNELS 3 Zrotation Yrotation Xrotation
				End Site
				{
					OFFSET 0.0 0.0 0.0
				}
			}
			JOINT right_shoulder
			{
				OFFSET -0.481 4.87 3.6622
				CHANNELS 3 Zrotation Yrotation Xrotation
				JOINT right_elbow
				{
					OFFSET 0 -5.49576 0
					CHANNELS 3 Zrotation Yrotation Xrotation
					JOINT right_wrist
					{
						OFFSET 0 -5.17894 0
						CHANNELS 3 Zrotation Yrotation Xrotation
						End Site
						{
							OFFSET 0.0 0.0 0.0
						}
					}
				}
			}
			JOINT left_shoulder
			{
				OFFSET -0.481 4.87 -3.6622
				CHANNELS 3 Zrotation Yrotation Xrotation
				JOINT left_elbow
				{
					OFFSET 0 -5.49576 0
					CHANNELS 3 Zrotation Yrotation Xrotation
					JOINT left_wrist
					{
						OFFSET 0 -5.17894 0
						CHANNELS 3 Zrotation Yrotation Xrotation
						End Site
						{
							OFFSET 0.0 0.0 0.0
						}
					}
				}
			}
		}
		JOINT right_hip
		{
			OFFSET 0 0 1.69774
			CHANNELS 3 Zrotation Yrotation Xrotation
			JOINT right_knee
			{
				OFFSET 0 -8.43092 0
				CHANNELS 3 Zrotation Yrotation Xrotation
				JOINT right_ankle
				{
					OFFSET 0 -8.1974 0
					CHANNELS 3 Zrotation Yrotation Xrotation
					End Site
					{
						OFFSET 0.0 0.0 0.0
					}
				}
			}
		}
		JOINT left_hip
		{
			OFFSET 0 0 -1.69774
			CHANNELS 3 Zrotation Yrotation Xrotation
			JOINT left_knee
			{
				OFFSET 0 -8.43092 0
				CHANNELS 3 Zrotation Yrotation Xrotation
				JOINT left_ankle
				{
					OFFSET 0 -8.1974 0
					CHANNELS 3 Zrotation Yrotation Xrotation
					End Site
					{
						OFFSET 0.0 0.0 0.0
					}
				}
			}
		}
	}
	JOINT red_arrow
	{
		OFFSET 0 0 0
		CHANNELS 3 Zrotation Yrotation Xrotation
		End Site
		{
			OFFSET 0.0 0.0 0.0
		}
	}
	JOINT blue_arrow
	{
		OFFSET 0 0 0
		CHANNELS 3 Zrotation Yrotation Xrotation
		End Site
		{
			OFFSET 0.0 0.0 0.0
		}
	}
}
MOTION
Frames: 13
Frame Time: 0.0333333333333333
41.6173081696033 0 -5.82421047389507 0 -2.17542156788705 0 0 18.3863052725792 0 -20.6013269782218 3.54216375539003 -4.53056404956657 -13.8298297196248 -8.64515397691153 -0.535371236627409 10.5131727218387 9.87400187872549 2.32267666348483 -54.4525528666339 -14.3306828516844 -32.3624395727011 66.8275953677803 0 0 0 0 0 38.976427894399 -30.7663578442631 43.9081397514203 102.054589710255 0 0 0 0 0 65.5017984741662 -7.75423723709009 -6.23388566091504 -36.0832610077737 0 0 -0.415809175432656 -0.731559554422466 2.1698634305505 3.38076043601493 -1.35481407342739 -3.08441098420841 -46.4412428840981 0 0 -55.4246671807314 3.98304318270896 -6.70911810328469 0 0 0 0 0 0
43.7757699012756 0 -5.95005004256964 0 -1.97750193212596 0 0 17.999386048317 0 -18.7185807193975 3.5620939493084 -5.79553403930768 -14.5474017215475 -8.16279194662239 -0.519642315709876 11.7227117628476 10.0441066544915 2.54991762402956 -51.2015309498913 -15.2453863877112 -28.8012144176044 65.8485355615831 0 0 0 0 0 35.8425399373623 -25.8632684000737 39.3370869338 99.3889786130636 0 0 0 0 0 62.4485283563234 -7.62760311400925 -5.91590226020035 -38.6090069062365 0 0 -2.94122615367311 0.599659248121834 1.19580593809474 3.33316381411478 -0.09709968433477 -0.973236846171081 -61.3376190865182 0 0 -54.5120151609967 3.14055489519703 -9.46254183892383 0 0 0 0 0 0
45.9433670639992 0 -6.08668162673712 0 -1.80253106700453 0 0 17.4840766429901 0 -16.8661028466319 3.18174709406174 -7.21790746807477 -14.7212723254622 -7.23733438474754 -0.581788423147632 12.2141040415427 9.73951283167533 2.39306449206143 -44.6221281001568 -12.7587421815927 -23.7781767514288 65.6094038085518 0 0 0 0 0 31.7665120828867 -18.8818517645046 32.2753451225526 95.2767744307982 0 0 0 0 0 57.0819958208419 -7.37105287122181 -4.77600908474056 -43.0854070203307 0 0 -5.071568063532 1.54402760437538 0.497295260197267 5.58771446593979 1.44568583271084 0.553642810806976 -76.561120369047 0 0 -50.3702815165848 2.10927928584858 -10.650421191307 0 0 0 0 0 0
48.1101062834263 0 -6.26539575457573 0 -1.69740840631216 0 0 16.8002620816231 0 -15.4622144175605 1.92509554936584 -8.59232685595226 -13.2186688438266 -5.80949327254477 -0.684720340125011 12.3540904998144 9.09822655979151 1.74446361671341 -33.8256738073366 -7.91819865270618 -18.1556894707958 65.3717746971379 0 0 0 0 0 24.014931677064 -11.7515925098766 24.3010999660762 88.8490063463043 0 0 0 0 0 50.6131658281306 -7.0631791227847 -3.24398504788289 -46.9145340124449 0 0 -5.06629455832945 1.5888089743575 0.282715465346478 8.94108627163353 2.7498323312396 1.16365550442196 -89.7900219988245 0 0 -43.5957812733103 1.26326016341201 -10.1157717681437 0 0 0 0 0 0
50.1962898910046 0 -6.45701927244663 0 -1.70466865185999 0 0 15.9725071787834 0 -15.4438380071734 -0.132963769428216 -10.2289247030218 -9.55899009828718 -4.38121313839868 -0.32637215686994 12.5496719394212 8.08606972289092 1.130262011342 -20.074123769745 -3.17436767066337 -13.1054942103506 65.5711137680647 0 0 0 0 0 12.5558262789877 -8.31525345987839 18.3920741061749 79.1725817264988 0 0 0 0 0 43.777272866884 -5.85725617079168 -1.44866425665753 -49.861081035483 0 0 12.2645620903914 0.5828433704638 8.39870716576364 14.8899237877974 4.18180150669938 2.42249813787688 -99.7363961851963 0 0 -33.9580057010608 0.982056429429597 -7.84106084940939 0 0 0 0 0 0
52.1318836808205 0 -6.69042093753815 0 -1.92874303706896 0 0 15.2666910648346 0 -17.2307978223129 -4.0669936764554 -12.5035915824583 -3.17507412367751 -3.16334014229268 0.73820572953957 12.0554694270439 6.66647971301243 0.630739365602975 -2.62145611855426 2.08661271479043 -11.5492155050388 66.2721097429615 0 0 0 0 0 -1.28761655586074 -9.99871520549916 16.609897790312 66.1330197707033 0 0 0 0 0 39.6284322006335 -4.46878016278316 1.40618915844613 -52.5920741185047 0 0 29.8841777257916 0.270868215630585 10.1996167093377 25.8653147168501 5.35472875795719 5.55108504891481 -103.747663831907 0 0 -21.1791868766926 2.29077251799472 -5.74790557907897 0 0 0 0 0 0
54.1312367558479 0 -6.89881046414375 0 -2.25543511187274 0 0 14.9523683547974 0 -18.6441394880412 -5.88376090334087 -16.2313186081095 1.60426590602278 -2.2375094143098 1.63846626647887 13.3788124192073 5.10196730623795 -0.224629276386465 15.5171374992946 9.06944658106477 -13.7706191396381 68.1048475727618 0 0 0 0 0 -18.7894589303874 -15.7911864012084 21.9310949937813 55.8697213917483 0 0 0 0 0 32.740986510701 -4.64982867105977 4.23448036743212 -50.6025697868742 0 0 36.3453862763903 0.541436269111078 12.0764059690328 41.2957105650735 2.82307408860291 11.6243150439496 -103.828061988627 0 0 -7.40829056252452 4.93043555107898 -5.96998320709282 0 0 0 0 0 0
56.3534415245056 0 -7.27533316612244 0 -2.45942577637972 0 0 14.7894395828247 0 -19.7558313072543 -3.6483332877749 -18.8365608979125 3.9911583925058 -1.45054277125054 1.48217046857599 17.1152550251555 1.93114396761989 -2.23113808826517 30.1278964987773 16.7467416621613 -19.505661786229 74.955219951772 0 0 0 0 0 -36.762260162976 -17.6212390683743 32.2732722516674 51.3743060310048 0 0 0 0 0 19.8231573281828 -4.00402521683522 5.25848936960064 -39.826194427657 0 0 38.9604384674995 -1.87044686035908 13.6989666970932 56.0166082207997 -3.06699749461417 12.3697345583398 -99.2787871711838 0 0 6.15445439707992 8.39426983631265 -11.7567911659802 0 0 0 0 0 0
58.5924413859844 0 -7.84525384902954 0 -2.55221638866072 0 0 14.5708215713501 0 -21.6625381348645 -1.63857714646348 -20.2813840013844 4.72415141180049 -0.428357602408402 1.2106253250779 22.0674114087415 -1.42803895616619 -3.63042392332031 38.79028576118 24.413054308928 -27.8455202412586 85.7960279005245 0 0 0 0 0 -52.2153070138202 -13.4883807274525 43.1387612533435 52.5416639073354 0 0 0 0 0 7.88229930796619 -1.5795767103386 4.99018411237069 -28.05522741207 0 0 32.6522285487481 -3.40859144625289 15.6836644407728 67.5086039437815 -6.54057969341158 9.95678625550578 -93.4561055452613 0 0 14.1714061563395 14.2641331034437 -22.2772544212514 0 0 0 0 0 0
60.8403336405754 0 -8.4996572136879 0 -2.5867977116513 0 0 14.5752595424652 0 -22.7781643413696 -0.605806672010103 -22.5295330297803 1.9810204403187 0.781988025762113 1.28339976372047 26.1886486099338 -2.55202184902899 -4.6247317403552 39.0122797963713 25.049009175135 -30.5644769183052 95.0750652842294 0 0 0 0 0 -57.5598714823412 -7.14129049525606 47.2668409221025 59.2479910118445 0 0 0 0 0 1.72380478311226 1.23143658397681 5.17241487859192 -25.5874783573971 0 0 8.18307013856233 -3.36077309300498 21.2729473149688 66.8637187533483 -4.56337954667426 8.40103161091392 -90.5737657155159 0 0 17.1304764216038 22.0200610051632 -22.2943014191543 0 0 0 0 0 0
62.8995154678822 0 -9.14444427490234 0 -2.75368667810944 0 0 14.6711762309074 0 -27.2055613934785 -2.82070275689606 -26.4579481628285 6.34060655028147 2.91838949664559 4.04011102558376 22.2272163077207 -1.05509088791942 -4.92248541896782 38.1043959187249 22.3042448042398 -27.902059925386 93.0377632887872 0 0 0 0 0 -56.3440826229806 -4.79966176715392 44.6728433101215 63.5132324126532 0 0 0 0 0 3.56164179945101 8.27641500070633 6.60051578622266 -33.5654517891265 0 0 -12.5774894409631 -2.43784323340258 16.7776827095447 66.5709020177542 -2.4006463692748 10.7517163508945 -88.8594497055452 0 0 16.2837147030576 28.5665409666404 -16.1409407354809 0 0 0 0 0 0
65.0419520199299 0 -9.7872488617897 0 -2.70817052337741 0 0 14.4757664203644 0 -29.8953983997954 0.749747088497284 -28.333089585677 1.86559750216593 2.76543005219126 2.37139033751921 22.8295173976378 -1.09503110401539 -3.88435275040622 35.9290222912825 16.5590049376527 -23.0142669612553 89.4396196340245 0 0 0 0 0 -52.463596880264 -2.61858951141935 44.2766179503136 63.4052402916862 0 0 0 0 0 -6.839709500032 12.1542667155394 3.73822745473146 -40.5273099308642 0 0 -24.6477699256699 1.45417530485003 15.9810452096294 62.679352793072 -0.520661377937935 8.61153059599083 -87.4356421315427 0 0 13.5387533646875 35.4920897833931 -14.3199533836 0 0 0 0 0 0
66.816021668911 0 -10.3754941225052 0 -2.53811537561689 0 0 14.2583725452423 0 -36.6029365795081 2.59482050677418 -30.1772388647843 -2.21412554780688 2.49429892731848 0.387351481876894 22.4840230722872 -1.08932076157394 -3.1899393959536 32.5596137818241 11.8817182916998 -18.8250926382724 86.4437142489493 0 0 0 0 0 -49.9136744863833 -0.634504764269177 44.1116555213027 61.4599204537965 0 0 0 0 0 -14.7821101602848 13.2871463149685 0.232514467007473 -51.1748166959162 0 0 -31.9186281379551 4.91748277355699 14.1827892663778 61.1796805233787 -0.839614914504831 5.92456062288927 -85.0814603397469 0 0 17.693463019804 33.3810263115094 -11.6301014813225 0 0 0 0 0 0
